<svg width="140" height="35" viewBox="0 0 140 35" fill="none" xmlns="http://www.w3.org/2000/svg">
<path d="M11.8367 23.941C11.7823 24.9672 11.7279 25.9394 11.6735 26.8576C11.619 27.7759 11.5374 28.6806 11.4286 29.5718C11.3469 30.3279 11.1701 31.0301 10.898 31.6782C10.6531 32.3534 10.3129 32.934 9.87755 33.4201C9.44218 33.9063 8.89796 34.2843 8.2449 34.5544C7.61905 34.8515 6.88435 35 6.04082 35C5.17007 35 4.40816 34.8515 3.7551 34.5544C3.12925 34.2843 2.58503 33.9063 2.12245 33.4201C1.68707 32.934 1.34694 32.3534 1.10204 31.6782C0.857143 31.0301 0.693878 30.3279 0.612245 29.5718C0.394558 27.8434 0.231292 25.9394 0.122449 23.86C0.0408163 21.7535 0 19.6875 0 17.662C0 15.6366 0.0272109 13.7056 0.0816327 11.8692C0.136054 10.0328 0.272109 8.26389 0.489796 6.5625C0.62585 5.2662 1.11565 4.19946 1.95918 3.36227C2.80272 2.52508 3.83673 1.86343 5.06122 1.37731C6.31293 0.864197 7.67347 0.513117 9.14286 0.324075C10.6395 0.108025 12.1224 0 13.5918 0C15.8231 0 17.7279 0.108025 19.3061 0.324075C20.8844 0.540123 22.1633 0.891203 23.1429 1.37731C24.1497 1.86343 24.8707 2.49807 25.3061 3.28125C25.7687 4.06443 26 5.02315 26 6.15741C26 7.8588 25.6599 9.14159 24.9796 10.0058C24.2993 10.843 23.3061 11.1536 22 10.9375C21.4558 10.8565 20.8571 10.789 20.2041 10.735C19.551 10.6809 18.966 10.6539 18.449 10.6539C16.9796 10.6539 15.7143 10.7485 14.6531 10.9375C13.5918 11.1265 12.6258 11.3966 11.7551 11.7477C11.5374 11.8287 11.3878 11.9502 11.3061 12.1123C11.2245 12.2743 11.1973 12.4363 11.2245 12.5984C11.2789 12.7334 11.3741 12.8414 11.5102 12.9225C11.6735 12.9765 11.8776 12.963 12.1224 12.8819C13.0204 12.5579 14 12.3148 15.0612 12.1528C16.1224 11.9637 17.1565 11.8692 18.1633 11.8692C19.1973 11.8422 20.1633 11.9097 21.0612 12.0718C21.9592 12.2338 22.6803 12.4904 23.2245 12.8414C23.6871 13.1385 24.0952 13.4626 24.449 13.8137C24.8027 14.1377 25.0884 14.5158 25.3061 14.9479C25.551 15.38 25.7279 15.8796 25.8367 16.4468C25.9456 17.0139 26 17.6755 26 18.4317C26 19.9441 25.7687 21.1053 25.3061 21.9155C24.8707 22.7257 24.1769 23.4144 23.2245 23.9815C22.6803 24.3326 21.9456 24.5891 21.0204 24.7512C20.1225 24.9132 19.1429 24.9942 18.0816 24.9942C17.0204 24.9672 15.932 24.8727 14.8163 24.7106C13.7279 24.5216 12.7347 24.265 11.8367 23.941Z" fill="white"/>
<path d="M33.0408 11.2486C32.3333 11.2486 31.6531 11.1272 31 10.8844C30.3741 10.6416 29.8163 10.2775 29.3265 9.79191C28.8367 9.30636 28.4422 8.71291 28.1429 8.01156C27.8435 7.31021 27.6939 6.51445 27.6939 5.62428C27.6939 4.78805 27.8435 4.03275 28.1429 3.35838C28.4422 2.65703 28.8367 2.06358 29.3265 1.57803C29.8435 1.06551 30.415 0.674373 31.0408 0.404624C31.6939 0.134875 32.3605 0 33.0408 0C33.7755 0 34.4694 0.16185 35.1224 0.48555C35.7755 0.809249 36.3469 1.24085 36.8367 1.78035C37.3265 2.31985 37.7075 2.94027 37.9796 3.64162C38.2517 4.31599 38.3878 5.01734 38.3878 5.74567C38.3878 6.50096 38.2517 7.2158 37.9796 7.89017C37.7075 8.53757 37.3401 9.11753 36.8775 9.63006C36.415 10.1156 35.8435 10.5067 35.1633 10.8035C34.5102 11.1002 33.8027 11.2486 33.0408 11.2486ZM27.5714 31.6012C27.1905 29.2004 27 26.7322 27 24.1965C27 21.6339 27.1905 19.1522 27.5714 16.7514C27.7075 15.8073 28.2109 15.0116 29.0816 14.3642C29.9796 13.6898 31.2993 13.3526 33.0408 13.3526C34.7279 13.3526 35.9932 13.6898 36.8367 14.3642C37.7075 15.0116 38.2245 15.8073 38.3878 16.7514C38.7959 19.1522 39 21.6339 39 24.1965C39 26.7322 38.7959 29.2004 38.3878 31.6012C38.2245 32.5453 37.7075 33.341 36.8367 33.9884C35.9932 34.6628 34.7279 35 33.0408 35C31.2993 35 29.9796 34.6628 29.0816 33.9884C28.2109 33.341 27.7075 32.5453 27.5714 31.6012Z" fill="white"/>
<path d="M52.4455 25.7485C53.132 25.8304 53.7525 25.9532 54.3069 26.117C54.8878 26.2534 55.3762 26.4717 55.7723 26.7719C56.1683 27.0721 56.472 27.4815 56.6832 28C56.8944 28.5185 57 29.1871 57 30.0058C57 31.0975 56.67 31.9708 56.0099 32.6257C55.3762 33.308 54.571 33.8129 53.5941 34.1403C52.6172 34.4951 51.5479 34.7271 50.3861 34.8363C49.2508 34.9454 48.1815 35 47.1782 35C45.4885 34.9727 44.1551 34.4405 43.1782 33.4035C42.2277 32.3665 41.6865 31.0702 41.5545 29.5146C41.1848 25.6121 41 21.6004 41 17.4795C41 13.3587 41.1848 9.34698 41.5545 5.44444C41.6337 4.68031 41.7921 3.97076 42.0297 3.31579C42.2673 2.66082 42.5974 2.08772 43.0198 1.59649C43.4686 1.10526 44.0099 0.723198 44.6436 0.450294C45.2772 0.150098 46.0165 0 46.8614 0C47.6799 0 48.3927 0.150098 49 0.450294C49.6073 0.723198 50.1221 1.10526 50.5446 1.59649C50.9934 2.08772 51.3366 2.66082 51.5743 3.31579C51.8119 3.97076 51.9703 4.68031 52.0495 5.44444C52.2079 6.94542 52.3267 8.55556 52.4059 10.2749C52.5116 11.9942 52.5776 13.7407 52.604 15.5146C52.6568 17.2885 52.67 19.0487 52.6436 20.7953C52.6172 22.5419 52.5512 24.193 52.4455 25.7485Z" fill="white"/>
<path d="M70.4455 25.7485C71.132 25.8304 71.7525 25.9532 72.3069 26.117C72.8878 26.2534 73.3762 26.4717 73.7723 26.7719C74.1683 27.0721 74.472 27.4815 74.6832 28C74.8944 28.5185 75 29.1871 75 30.0058C75 31.0975 74.67 31.9708 74.0099 32.6257C73.3762 33.308 72.571 33.8129 71.5941 34.1403C70.6172 34.4951 69.5479 34.7271 68.3861 34.8363C67.2508 34.9454 66.1815 35 65.1782 35C63.4885 34.9727 62.1551 34.4405 61.1782 33.4035C60.2277 32.3665 59.6865 31.0702 59.5545 29.5146C59.1848 25.6121 59 21.6004 59 17.4795C59 13.3587 59.1848 9.34698 59.5545 5.44444C59.6337 4.68031 59.7921 3.97076 60.0297 3.31579C60.2673 2.66082 60.5974 2.08772 61.0198 1.59649C61.4686 1.10526 62.0099 0.723198 62.6436 0.450294C63.2772 0.150098 64.0165 0 64.8614 0C65.6799 0 66.3927 0.150098 67 0.450294C67.6073 0.723198 68.1221 1.10526 68.5446 1.59649C68.9934 2.08772 69.3366 2.66082 69.5743 3.31579C69.8119 3.97076 69.9703 4.68031 70.0495 5.44444C70.2079 6.94542 70.3267 8.55556 70.4059 10.2749C70.5116 11.9942 70.5776 13.7407 70.604 15.5146C70.6568 17.2885 70.67 19.0487 70.6436 20.7953C70.6172 22.5419 70.5512 24.193 70.4455 25.7485Z" fill="white"/>
<path d="M101.607 27.7184C101.58 28.1023 101.553 28.4726 101.527 28.8291C101.527 29.1857 101.5 29.5422 101.446 29.8987C101.284 31.462 100.733 32.6962 99.7919 33.6013C98.8507 34.5338 97.4926 35 95.7176 35C93.9427 35 92.5846 34.5338 91.6433 33.6013C90.7289 32.6962 90.1776 31.462 89.9894 29.8987C89.9356 29.5422 89.8953 29.1857 89.8684 28.8291C89.8415 28.4726 89.8146 28.1023 89.7877 27.7184C89.7877 27.4715 89.7339 27.2795 89.6263 27.1424C89.5188 26.9778 89.3977 26.8819 89.2633 26.8544C89.1288 26.827 88.9943 26.8681 88.8599 26.9778C88.7254 27.0601 88.6178 27.1973 88.5372 27.3892C88.4834 27.8281 88.443 28.2532 88.4161 28.6646C88.4161 29.0759 88.3892 29.4873 88.3355 29.8987C88.1741 31.462 87.6631 32.6962 86.8025 33.6013C85.9689 34.5338 84.7049 35 83.0106 35C81.2895 35 79.9717 34.5338 79.0573 33.6013C78.1699 32.6962 77.6454 31.462 77.4841 29.8987C77.3496 28.5274 77.242 27.1013 77.1614 25.6203C77.1076 24.1118 77.0538 22.6719 77 21.3006V13.9367C77 12.4557 77.4437 11.2627 78.3312 10.3576C79.2187 9.45253 80.3885 9 81.8408 9C82.9972 9 84.0863 9.19198 85.1083 9.57595C86.1571 9.93249 86.8967 10.577 87.327 11.5095C86.2781 12.826 85.4982 14.2247 84.9873 15.7057C84.5032 17.1593 84.3418 18.6951 84.5032 20.3133C84.5301 20.5601 84.6108 20.7521 84.7452 20.8892C84.8797 20.9989 85.0142 21.0538 85.1486 21.0538C85.2831 21.0538 85.4041 20.9989 85.5117 20.8892C85.6192 20.7795 85.673 20.615 85.673 20.3956C85.5924 19.3534 85.6596 18.3112 85.8747 17.269C86.0899 16.1994 86.4126 15.212 86.8429 14.307C87.2732 13.4019 87.7842 12.5928 88.3758 11.8797C88.9674 11.1392 89.586 10.577 90.2314 10.193C90.7962 9.80907 91.4013 9.5211 92.0467 9.32911C92.6922 9.1097 93.351 9 94.0234 9C95.1529 9 96.2824 9.19198 97.4119 9.57595C98.5414 9.93249 99.4961 10.5496 100.276 11.4272C99.3885 12.5791 98.7431 13.8407 98.3397 15.212C97.9632 16.5833 97.8153 18.0095 97.896 19.4905C98.0035 19.9842 98.2187 20.2036 98.5414 20.1487C98.8641 20.0665 99.0255 19.8333 99.0255 19.4494C98.9717 18.4346 99.0658 17.4473 99.3079 16.4873C99.5499 15.5 99.8726 14.6087 100.276 13.8133C100.679 12.9905 101.137 12.2637 101.648 11.6329C102.159 11.0021 102.656 10.5222 103.14 10.193C103.651 9.8365 104.27 9.56224 104.996 9.37025C105.749 9.15085 106.542 9.04114 107.376 9.04114C108.667 9.04114 109.823 9.28798 110.845 9.78165C111.894 10.2753 112.808 11.0844 113.588 12.2089C113.884 12.6751 114.126 13.1551 114.314 13.6487C114.502 14.115 114.65 14.7046 114.758 15.4177C114.866 16.1034 114.933 16.9673 114.96 18.0095C114.987 19.0243 115 20.2996 115 21.8354C115 22.6582 114.987 23.3987 114.96 24.057C114.933 24.6878 114.892 25.3186 114.839 25.9494C114.785 26.5527 114.718 27.1698 114.637 27.8006C114.583 28.4314 114.502 29.1308 114.395 29.8987C114.18 31.462 113.628 32.6962 112.741 33.6013C111.854 34.5338 110.522 35 108.747 35C106.972 35 105.628 34.5338 104.713 33.6013C103.826 32.6962 103.288 31.462 103.1 29.8987C103.046 29.5422 103.006 29.1994 102.979 28.8703C102.952 28.5137 102.925 28.1435 102.898 27.7595C102.898 27.4578 102.831 27.2384 102.696 27.1013C102.562 26.9367 102.414 26.8544 102.253 26.8544C102.118 26.8544 101.984 26.923 101.849 27.0601C101.715 27.1973 101.648 27.4167 101.648 27.7184H101.607Z" fill="white"/>
<path d="M122.496 33.169C121.581 32.5994 120.787 31.9077 120.114 31.0939C119.44 30.3073 118.875 29.4528 118.417 28.5305C117.96 27.5811 117.609 26.591 117.367 25.5603C117.152 24.5295 117.031 23.4851 117.004 22.4272C116.977 21.1794 117.098 19.9452 117.367 18.7246C117.636 17.4768 118.027 16.3239 118.538 15.266C119.077 14.181 119.737 13.218 120.517 12.3772C121.298 11.5363 122.214 10.8717 123.264 10.3834C124.287 9.92228 125.337 9.5832 126.414 9.3662C127.518 9.12207 128.608 9 129.685 9C131.112 9 132.472 9.18988 133.765 9.56964C135.057 9.92228 136.174 10.4784 137.117 11.2379C138.059 11.9974 138.786 12.9604 139.298 14.1268C139.836 15.2932 140.065 16.6766 139.984 18.277C139.876 20.2029 139.325 21.6677 138.328 22.6714C137.332 23.675 135.811 24.421 133.765 24.9092C133.226 25.0449 132.634 25.1262 131.987 25.1534C131.368 25.1805 130.749 25.1398 130.13 25.0313C129.537 24.9228 128.972 24.7329 128.433 24.4617C127.922 24.1904 127.518 23.8106 127.222 23.3224C127.114 23.1596 126.899 23.1054 126.576 23.1596C126.279 23.1868 126.158 23.3902 126.212 23.77C126.239 24.0683 126.387 24.3803 126.656 24.7058C126.926 25.0313 127.276 25.3432 127.706 25.6416C128.164 25.9129 128.689 26.1435 129.281 26.3333C129.874 26.4961 130.534 26.5775 131.26 26.5775C131.53 26.5775 131.826 26.5503 132.149 26.4961C132.499 26.4147 132.795 26.3469 133.038 26.2926C133.953 26.0214 134.734 25.8315 135.38 25.723C136.053 25.6145 136.632 25.6281 137.117 25.7637C137.628 25.8993 138.059 26.1977 138.409 26.6588C138.759 27.0929 139.082 27.7303 139.378 28.5712C139.836 29.8732 139.701 30.999 138.975 31.9484C138.274 32.8978 136.915 33.6844 134.895 34.3083C133.926 34.6067 133.064 34.7966 132.311 34.8779C131.584 34.9593 130.722 35 129.726 35C128.433 35 127.168 34.8644 125.929 34.5931C124.691 34.3219 123.546 33.8472 122.496 33.169ZM127.868 17.9108C128.891 17.6124 129.847 17.4768 130.735 17.5039C131.651 17.5039 132.593 17.6124 133.563 17.8294C133.724 17.8565 133.859 17.8023 133.966 17.6667C134.101 17.531 134.182 17.3818 134.209 17.2191C134.236 17.0292 134.209 16.8529 134.128 16.6901C134.047 16.5274 133.886 16.4189 133.643 16.3646C132.701 16.1476 131.705 16.012 130.655 15.9577C129.632 15.8764 128.662 16.0256 127.747 16.4053C127.531 16.4867 127.383 16.6223 127.302 16.8122C127.249 16.975 127.235 17.1513 127.262 17.3412C127.289 17.531 127.356 17.6938 127.464 17.8294C127.572 17.9379 127.706 17.9651 127.868 17.9108Z" fill="white"/>
</svg>
