<svg width="48" height="48" viewBox="0 0 48 48" fill="none" xmlns="http://www.w3.org/2000/svg">
<path d="M24 48C37.2548 48 48 37.2548 48 24C48 10.7452 37.2548 0 24 0C10.7452 0 0 10.7452 0 24C0 37.2548 10.7452 48 24 48Z" fill="black"/>
<path d="M29.8917 33.66C28.7484 34.7683 27.5 34.5933 26.2984 34.0683C25.0267 33.5317 23.86 33.5083 22.5184 34.0683C20.8384 34.7917 19.9517 34.5817 18.9484 33.66C13.255 27.7917 14.095 18.855 20.5584 18.5283C22.1334 18.61 23.23 19.3917 24.1517 19.4617C25.5284 19.1817 26.8467 18.3767 28.3167 18.4817C30.0784 18.6217 31.4084 19.3217 32.2834 20.5817C28.6434 22.7633 29.5067 27.5583 32.8434 28.9C32.1784 30.65 31.315 32.3883 29.88 33.6717L29.8917 33.66ZM24.035 18.4583C23.86 15.8567 25.9717 13.71 28.3984 13.5C28.7367 16.51 25.6684 18.75 24.035 18.4583Z" fill="white"/>
</svg>
