<svg width="192" height="48" viewBox="0 0 192 48" fill="none" xmlns="http://www.w3.org/2000/svg">
<path d="M16.5925 32.8508C16.5185 34.2565 16.4445 35.5883 16.3705 36.8461C16.2965 38.1039 16.1855 39.3432 16.0376 40.5641C15.9266 41.5999 15.6861 42.5617 15.3162 43.4496C14.9832 44.3745 14.5208 45.1698 13.9289 45.8357C13.337 46.5016 12.5971 47.0195 11.7092 47.3895C10.8584 47.7964 9.85953 47.9999 8.71271 47.9999C7.5289 47.9999 6.49306 47.7964 5.6052 47.3895C4.75433 47.0195 4.01445 46.5016 3.38555 45.8357C2.79364 45.1698 2.33121 44.3745 1.99826 43.4496C1.66532 42.5617 1.44335 41.5999 1.33237 40.5641C1.03642 38.1964 0.814451 35.5883 0.666474 32.7398C0.555491 29.8542 0.5 27.0242 0.5 24.2496C0.5 21.4751 0.536994 18.83 0.610983 16.3144C0.684971 13.7988 0.869942 11.3756 1.1659 9.04501C1.35087 7.26929 2.01676 5.80802 3.16358 4.6612C4.3104 3.51438 5.71618 2.60802 7.38092 1.94212C9.08265 1.23923 10.9324 0.758309 12.93 0.499351C14.9647 0.203397 16.9809 0.0554199 18.9786 0.0554199C22.0121 0.0554199 24.6017 0.203397 26.7474 0.499351C28.893 0.795303 30.6318 1.27623 31.9636 1.94212C33.3323 2.60802 34.3127 3.47738 34.9046 4.55022C35.5335 5.62305 35.8479 6.93634 35.8479 8.4901C35.8479 10.8207 35.3855 12.578 34.4607 13.7618C33.5358 14.9086 32.1855 15.334 30.4098 15.0381C29.6699 14.9271 28.856 14.8346 27.9682 14.7606C27.0803 14.6866 26.285 14.6496 25.5821 14.6496C23.5844 14.6496 21.8641 14.7791 20.4214 15.0381C18.9786 15.297 17.6653 15.667 16.4815 16.1479C16.1855 16.2589 15.9821 16.4253 15.8711 16.6473C15.7601 16.8693 15.7231 17.0912 15.7601 17.3132C15.8341 17.4982 15.9636 17.6462 16.1485 17.7571C16.3705 17.8311 16.648 17.8126 16.9809 17.7016C18.2017 17.2577 19.5335 16.9248 20.9763 16.7028C22.4191 16.4438 23.8248 16.3144 25.1936 16.3144C26.5994 16.2774 27.9127 16.3699 29.1335 16.5918C30.3543 16.8138 31.3347 17.1652 32.0745 17.6462C32.7034 18.0531 33.2584 18.497 33.7393 18.9779C34.2202 19.4219 34.6086 19.9398 34.9046 20.5317C35.2375 21.1236 35.478 21.808 35.626 22.5849C35.774 23.3618 35.8479 24.2681 35.8479 25.304C35.8479 27.3756 35.5335 28.9664 34.9046 30.0762C34.3127 31.186 33.3693 32.1294 32.0745 32.9063C31.3347 33.3872 30.3358 33.7386 29.078 33.9606C27.8572 34.1826 26.5254 34.2935 25.0826 34.2935C23.6399 34.2565 22.1601 34.1271 20.6433 33.9051C19.1636 33.6461 17.8133 33.2947 16.5925 32.8508Z" fill="#0DD3CD"/>
<path d="M46.0604 15.4266C45.0985 15.4266 44.1737 15.2601 43.2858 14.9272C42.4349 14.5942 41.6766 14.0948 41.0107 13.4289C40.3448 12.763 39.8083 11.9491 39.4014 10.9873C38.9945 10.0254 38.791 8.93409 38.791 7.71329C38.791 6.56647 38.9945 5.53063 39.4014 4.60578C39.8083 3.64393 40.3448 2.83005 41.0107 2.16416C41.7136 1.46127 42.4904 0.924854 43.3413 0.554912C44.2292 0.184971 45.1355 0 46.0604 0C47.0592 0 48.0026 0.221966 48.8904 0.665897C49.7783 1.10983 50.5552 1.70173 51.2211 2.44162C51.887 3.1815 52.4049 4.03237 52.7748 4.99421C53.1448 5.91907 53.3297 6.88092 53.3297 7.87976C53.3297 8.9156 53.1448 9.89594 52.7748 10.8208C52.4049 11.7087 51.9054 12.504 51.2765 13.2069C50.6476 13.8728 49.8708 14.4092 48.9459 14.8162C48.0581 15.2231 47.0962 15.4266 46.0604 15.4266ZM38.6245 43.3387C38.1066 40.0462 37.8477 36.6612 37.8477 33.1838C37.8477 29.6693 38.1066 26.2659 38.6245 22.9734C38.8095 21.6786 39.4939 20.5873 40.6777 19.6994C41.8985 18.7745 43.6927 18.3121 46.0604 18.3121C48.354 18.3121 50.0742 18.7745 51.2211 19.6994C52.4049 20.5873 53.1078 21.6786 53.3297 22.9734C53.8846 26.2659 54.1621 29.6693 54.1621 33.1838C54.1621 36.6612 53.8846 40.0462 53.3297 43.3387C53.1078 44.6335 52.4049 45.7248 51.2211 46.6127C50.0742 47.5375 48.354 48 46.0604 48C43.6927 48 41.8985 47.5375 40.6777 46.6127C39.4939 45.7248 38.8095 44.6335 38.6245 43.3387Z" fill="#0DD3CD"/>
<path d="M72.1991 35.459C73.1609 35.5699 74.0303 35.7364 74.8072 35.9584C75.6211 36.1433 76.3054 36.4393 76.8604 36.8462C77.4153 37.2532 77.8407 37.8081 78.1367 38.511C78.4326 39.2139 78.5806 40.1202 78.5806 41.23C78.5806 42.7098 78.1182 43.8936 77.1933 44.7815C76.3054 45.7063 75.1771 46.3907 73.8083 46.8347C72.4396 47.3156 70.9413 47.63 69.3135 47.778C67.7228 47.926 66.2245 48 64.8188 48C62.4511 47.963 60.5829 47.2416 59.2141 45.8358C57.8823 44.43 57.124 42.6728 56.939 40.5641C56.4211 35.274 56.1621 29.8358 56.1621 24.2497C56.1621 18.6636 56.4211 13.2254 56.939 7.93527C57.05 6.89944 57.2719 5.93759 57.6049 5.04973C57.9378 4.16187 58.4003 3.38499 58.9922 2.71909C59.6211 2.0532 60.3794 1.53528 61.2673 1.16534C62.1552 0.7584 63.191 0.554932 64.3748 0.554932C65.5216 0.554932 66.5205 0.7584 67.3714 1.16534C68.2222 1.53528 68.9436 2.0532 69.5355 2.71909C70.1644 3.38499 70.6453 4.16187 70.9783 5.04973C71.3112 5.93759 71.5332 6.89944 71.6442 7.93527C71.8661 9.96995 72.0326 12.1526 72.1436 14.4832C72.2916 16.8139 72.3841 19.1815 72.4211 21.5861C72.495 23.9908 72.5135 26.3769 72.4765 28.7445C72.4396 31.1121 72.3471 33.3503 72.1991 35.459Z" fill="#0DD3CD"/>
<path d="M96.618 35.459C97.5799 35.5699 98.4492 35.7364 99.2261 35.9584C100.04 36.1433 100.724 36.4393 101.279 36.8462C101.834 37.2532 102.26 37.8081 102.556 38.511C102.852 39.2139 103 40.1202 103 41.23C103 42.7098 102.537 43.8936 101.612 44.7815C100.724 45.7063 99.5961 46.3907 98.2273 46.8347C96.8585 47.3156 95.3602 47.63 93.7325 47.778C92.1417 47.926 90.6435 48 89.2377 48C86.8701 47.963 85.0019 47.2416 83.6331 45.8358C82.3013 44.43 81.5429 42.6728 81.3579 40.5641C80.84 35.274 80.5811 29.8358 80.5811 24.2497C80.5811 18.6636 80.84 13.2254 81.3579 7.93527C81.4689 6.89944 81.6909 5.93759 82.0238 5.04973C82.3568 4.16187 82.8192 3.38499 83.4111 2.71909C84.04 2.0532 84.7984 1.53528 85.6863 1.16534C86.5741 0.7584 87.61 0.554932 88.7938 0.554932C89.9406 0.554932 90.9394 0.7584 91.7903 1.16534C92.6412 1.53528 93.3625 2.0532 93.9545 2.71909C94.5834 3.38499 95.0643 4.16187 95.3972 5.04973C95.7302 5.93759 95.9521 6.89944 96.0631 7.93527C96.2851 9.96995 96.4516 12.1526 96.5625 14.4832C96.7105 16.8139 96.803 19.1815 96.84 21.5861C96.914 23.9908 96.9325 26.3769 96.8955 28.7445C96.8585 31.1121 96.766 33.3503 96.618 35.459Z" fill="#0DD3CD"/>
<path d="M138.849 38.178C138.812 38.6959 138.775 39.1953 138.738 39.6762C138.738 40.1572 138.701 40.6381 138.627 41.119C138.405 43.2277 137.646 44.8924 136.352 46.1132C135.057 47.371 133.189 47.9999 130.747 47.9999C128.305 47.9999 126.437 47.371 125.142 46.1132C123.885 44.8924 123.126 43.2277 122.867 41.119C122.793 40.6381 122.738 40.1572 122.701 39.6762C122.664 39.1953 122.627 38.6959 122.59 38.178C122.59 37.845 122.516 37.5861 122.368 37.4011C122.22 37.1791 122.053 37.0497 121.868 37.0127C121.683 36.9757 121.498 37.0312 121.313 37.1791C121.128 37.2901 120.981 37.4751 120.87 37.734C120.796 38.326 120.74 38.8994 120.703 39.4543C120.703 40.0092 120.666 40.5641 120.592 41.119C120.37 43.2277 119.667 44.8924 118.483 46.1132C117.337 47.371 115.598 47.9999 113.267 47.9999C110.9 47.9999 109.087 47.371 107.829 46.1132C106.608 44.8924 105.887 43.2277 105.665 41.119C105.48 39.2693 105.332 37.3456 105.221 35.3479C105.147 33.3132 105.073 31.371 104.999 29.5213V19.5884C104.999 17.5907 105.609 15.9815 106.83 14.7607C108.051 13.5398 109.66 12.9294 111.658 12.9294C113.249 12.9294 114.747 13.1884 116.153 13.7063C117.596 14.1872 118.613 15.0566 119.205 16.3144C117.762 18.0901 116.689 19.9768 115.986 21.9745C115.32 23.9352 115.098 26.0069 115.32 28.1895C115.357 28.5225 115.468 28.7815 115.653 28.9664C115.838 29.1144 116.023 29.1884 116.208 29.1884C116.393 29.1884 116.56 29.1144 116.708 28.9664C116.856 28.8184 116.93 28.5965 116.93 28.3005C116.819 26.8948 116.911 25.489 117.207 24.0832C117.503 22.6404 117.947 21.3086 118.539 20.0878C119.131 18.867 119.834 17.7757 120.648 16.8138C121.461 15.815 122.312 15.0566 123.2 14.5387C123.977 14.0208 124.809 13.6323 125.697 13.3734C126.585 13.0774 127.491 12.9294 128.416 12.9294C129.97 12.9294 131.524 13.1884 133.078 13.7063C134.631 14.1872 135.945 15.0196 137.017 16.2034C135.797 17.7572 134.909 19.4589 134.354 21.3086C133.836 23.1583 133.633 25.082 133.744 27.0797C133.891 27.7456 134.187 28.0416 134.631 27.9676C135.075 27.8566 135.297 27.5422 135.297 27.0242C135.223 25.6554 135.353 24.3237 135.686 23.0289C136.019 21.6971 136.463 20.4948 137.017 19.4219C137.572 18.3121 138.201 17.3318 138.904 16.4809C139.607 15.63 140.291 14.9826 140.957 14.5387C141.66 14.0578 142.511 13.6878 143.51 13.4289C144.546 13.1329 145.637 12.9849 146.784 12.9849C148.56 12.9849 150.15 13.3179 151.556 13.9838C152.999 14.6497 154.257 15.741 155.33 17.2578C155.737 17.8867 156.07 18.5341 156.328 19.2C156.587 19.8289 156.791 20.6242 156.939 21.5861C157.087 22.5109 157.179 23.6763 157.216 25.082C157.253 26.4508 157.272 28.1711 157.272 30.2427C157.272 31.3526 157.253 32.3514 157.216 33.2393C157.179 34.0901 157.124 34.941 157.05 35.7919C156.976 36.6057 156.883 37.4381 156.772 38.289C156.698 39.1398 156.587 40.0832 156.439 41.119C156.143 43.2277 155.385 44.8924 154.164 46.1132C152.943 47.371 151.112 47.9999 148.671 47.9999C146.229 47.9999 144.379 47.371 143.122 46.1132C141.901 44.8924 141.161 43.2277 140.902 41.119C140.828 40.6381 140.772 40.1757 140.735 39.7317C140.698 39.2508 140.661 38.7514 140.624 38.2335C140.624 37.8265 140.532 37.5306 140.347 37.3456C140.162 37.1236 139.959 37.0127 139.737 37.0127C139.552 37.0127 139.367 37.1052 139.182 37.2901C138.997 37.4751 138.904 37.771 138.904 38.178H138.849Z" fill="#0DD3CD"/>
<path d="M166.824 45.5028C165.567 44.726 164.475 43.7826 163.55 42.6728C162.625 41.6 161.849 40.4346 161.22 39.1768C160.591 37.882 160.11 36.5317 159.777 35.126C159.481 33.7202 159.314 32.2959 159.278 30.8531C159.241 29.1514 159.407 27.4682 159.777 25.8034C160.147 24.1017 160.683 22.5294 161.386 21.0867C162.126 19.6069 163.032 18.2936 164.105 17.1468C165.178 16 166.436 15.0936 167.879 14.4277C169.284 13.7988 170.727 13.3364 172.207 13.0404C173.724 12.7075 175.222 12.541 176.702 12.541C178.662 12.541 180.531 12.8 182.306 13.3179C184.082 13.7988 185.617 14.5572 186.912 15.593C188.207 16.6289 189.206 17.9422 189.909 19.5329C190.649 21.1237 190.963 23.0104 190.852 25.193C190.704 27.8196 189.946 29.8173 188.577 31.1861C187.208 32.5549 185.118 33.5722 182.306 34.2381C181.567 34.4231 180.753 34.5341 179.865 34.5711C179.014 34.6081 178.163 34.5526 177.312 34.4046C176.498 34.2566 175.721 33.9976 174.982 33.6277C174.279 33.2578 173.724 32.7398 173.317 32.0739C173.169 31.852 172.873 31.778 172.429 31.852C172.022 31.889 171.856 32.1664 171.93 32.6844C171.967 33.0913 172.17 33.5167 172.54 33.9607C172.91 34.4046 173.391 34.83 173.983 35.237C174.612 35.6069 175.333 35.9213 176.147 36.1803C176.961 36.4023 177.867 36.5133 178.866 36.5133C179.236 36.5133 179.643 36.4763 180.087 36.4023C180.568 36.2913 180.975 36.1988 181.308 36.1248C182.565 35.7549 183.638 35.4959 184.526 35.3479C185.451 35.2 186.246 35.2185 186.912 35.4034C187.615 35.5884 188.207 35.9953 188.688 36.6242C189.169 37.2161 189.613 38.0855 190.02 39.2323C190.649 41.008 190.464 42.5433 189.465 43.8381C188.503 45.1329 186.635 46.2057 183.86 47.0566C182.528 47.4635 181.345 47.7225 180.309 47.8335C179.31 47.9445 178.126 47.9999 176.757 47.9999C174.982 47.9999 173.243 47.815 171.541 47.445C169.839 47.0751 168.267 46.4277 166.824 45.5028ZM174.205 24.6936C175.61 24.2867 176.924 24.1017 178.145 24.1387C179.402 24.1387 180.697 24.2867 182.029 24.5826C182.251 24.6196 182.436 24.5456 182.584 24.3607C182.769 24.1757 182.88 23.9722 182.917 23.7503C182.954 23.4913 182.917 23.2508 182.806 23.0289C182.695 22.8069 182.473 22.6589 182.14 22.5849C180.845 22.289 179.476 22.104 178.034 22.03C176.628 21.919 175.296 22.1225 174.038 22.6404C173.742 22.7514 173.539 22.9364 173.428 23.1953C173.354 23.4173 173.335 23.6578 173.372 23.9167C173.409 24.1757 173.502 24.3977 173.65 24.5826C173.798 24.7306 173.983 24.7676 174.205 24.6936Z" fill="#0DD3CD"/>
</svg>
