<svg width="40" height="40" viewBox="0 0 40 40" fill="none" xmlns="http://www.w3.org/2000/svg">
<path fill-rule="evenodd" clip-rule="evenodd" d="M18.3963 5C16.5698 5 14.8181 5.72558 13.5266 7.01711C12.2351 8.30865 11.5095 10.0603 11.5095 11.8869C11.5095 13.7134 12.2351 15.4651 13.5266 16.7566C14.8181 18.0481 16.5698 18.7737 18.3963 18.7737C20.2228 18.7737 21.9745 18.0481 23.2661 16.7566C24.5576 15.4651 25.2832 13.7134 25.2832 11.8869C25.2832 10.0603 24.5576 8.30865 23.2661 7.01711C21.9745 5.72558 20.2228 5 18.3963 5ZM18.3963 20.1511C15.0975 20.1511 12.0949 21.107 9.88694 22.454C8.78504 23.1262 7.84292 23.9196 7.1625 24.7818C6.4931 25.6275 6 26.6426 6 27.7266C6 28.8905 6.5661 29.8078 7.3815 30.4621C8.15283 31.0819 9.17071 31.4923 10.2519 31.7788C12.4254 32.3532 15.3262 32.5474 18.3963 32.5474C18.714 32.5474 19.0285 32.5451 19.3398 32.5405C19.5705 32.5374 19.7967 32.4763 19.9976 32.363C20.1986 32.2496 20.3678 32.0876 20.4898 31.8918C20.6119 31.696 20.6828 31.4727 20.696 31.2424C20.7093 31.0121 20.6645 30.7821 20.5657 30.5736C20.0434 29.4682 19.7729 28.2606 19.7737 27.0379C19.7737 25.3135 20.3012 23.7157 21.202 22.3921C21.3359 22.1954 21.4166 21.9673 21.4361 21.7302C21.4557 21.493 21.4135 21.2549 21.3136 21.0389C21.2137 20.8229 21.0596 20.6365 20.8663 20.4978C20.6729 20.3591 20.4469 20.2729 20.2103 20.2475C19.6171 20.1832 19.0125 20.1511 18.3963 20.1511ZM29.228 21.5243C29.1067 21.3162 28.933 21.1436 28.7242 21.0236C28.5154 20.9036 28.2788 20.8404 28.0379 20.8404C27.7971 20.8404 27.5605 20.9036 27.3517 21.0236C27.1428 21.1436 26.9691 21.3162 26.8479 21.5243L25.5945 23.6758L23.162 24.2019C22.9265 24.2529 22.7085 24.3647 22.5297 24.5263C22.3509 24.6878 22.2177 24.8935 22.1432 25.1227C22.0688 25.3518 22.0558 25.5965 22.1055 25.8323C22.1552 26.0681 22.2659 26.2867 22.4265 26.4663L24.0849 28.323L23.8342 30.7995C23.8099 31.0392 23.8489 31.281 23.9473 31.5009C24.0456 31.7208 24.1999 31.911 24.3948 32.0526C24.5897 32.1942 24.8182 32.2823 25.0577 32.308C25.2973 32.3336 25.5393 32.296 25.7598 32.1989L28.0379 31.1935L30.3161 32.1989C30.5365 32.296 30.7786 32.3336 31.0181 32.308C31.2576 32.2823 31.4862 32.1942 31.6811 32.0526C31.8759 31.911 32.0302 31.7208 32.1286 31.5009C32.227 31.281 32.266 31.0392 32.2417 30.7995L31.991 28.3216L33.6493 26.4663C33.81 26.2867 33.9207 26.0681 33.9704 25.8323C34.0201 25.5965 34.0071 25.3518 33.9326 25.1227C33.8582 24.8935 33.7249 24.6878 33.5461 24.5263C33.3674 24.3647 33.1493 24.2529 32.9138 24.2019L30.4814 23.6758L29.228 21.5243Z" fill="#0DD3CD"/>
</svg>
