<svg width="40" height="40" viewBox="0 0 40 40" fill="none" xmlns="http://www.w3.org/2000/svg">
<path d="M18.4243 6C16.741 6 15.1267 6.66868 13.9364 7.85895C12.7462 9.04921 12.0775 10.6636 12.0775 12.3468C12.0775 14.0301 12.7462 15.6445 13.9364 16.8347C15.1267 18.025 16.741 18.6937 18.4243 18.6937C20.1076 18.6937 21.7219 18.025 22.9122 16.8347C24.1025 15.6445 24.7711 14.0301 24.7711 12.3468C24.7711 10.6636 24.1025 9.04921 22.9122 7.85895C21.7219 6.66868 20.1076 6 18.4243 6ZM18.4243 19.963C15.3842 19.963 12.617 20.844 10.5822 22.0854C9.56666 22.7049 8.69841 23.436 8.07135 24.2307C7.45443 25.01 7 25.9456 7 26.9446C7 28.0172 7.52171 28.8626 8.27318 29.4655C8.98402 30.0367 9.92208 30.415 10.9185 30.679C12.9216 31.2084 15.5949 31.3873 18.4243 31.3873L19.2938 31.381C19.5064 31.3781 19.7149 31.3218 19.9 31.2174C20.0852 31.1129 20.2412 30.9636 20.3537 30.7832C20.4661 30.6027 20.5314 30.3969 20.5437 30.1847C20.5559 29.9724 20.5146 29.7605 20.4236 29.5683C19.9422 28.5496 19.6929 27.4367 19.6937 26.3099C19.6937 24.7206 20.1798 23.2482 21.01 22.0283C21.1334 21.847 21.2077 21.6369 21.2258 21.4183C21.2438 21.1998 21.2049 20.9803 21.1128 20.7812C21.0208 20.5822 20.8787 20.4104 20.7006 20.2826C20.5224 20.1548 20.3141 20.0753 20.0961 20.0519C19.5494 19.9927 18.9921 19.963 18.4243 19.963ZM27.711 21.2971C27.4506 21.2104 27.1691 21.2104 26.9088 21.2971L23.1007 22.5665C22.8478 22.6507 22.6279 22.8124 22.472 23.0286C22.3162 23.2448 22.2323 23.5046 22.2324 23.7711V25.8923C22.2322 27.25 22.7327 28.5601 23.6382 29.5719C24.5436 30.5836 25.7903 31.226 27.1398 31.3759C27.254 31.3886 27.3674 31.3886 27.48 31.3759C28.8294 31.226 30.0761 30.5836 30.9816 29.5719C31.887 28.5601 32.3875 27.25 32.3873 25.8923V23.7711C32.3874 23.5046 32.3036 23.2448 32.1477 23.0286C31.9919 22.8124 31.772 22.6507 31.5191 22.5665L27.711 21.2971Z" fill="#0DD3CD"/>
</svg>
