<svg width="24" height="24" viewBox="0 0 24 24" fill="none" xmlns="http://www.w3.org/2000/svg">
<rect x="7" y="9" width="9" height="8" fill="white"/>
<path fill-rule="evenodd" clip-rule="evenodd" d="M4.7999 5.99961C3.47442 5.99961 2.3999 7.07413 2.3999 8.39961V17.9996C2.3999 19.3251 3.47442 20.3996 4.7999 20.3996H19.1999C20.5254 20.3996 21.5999 19.3251 21.5999 17.9996V8.39961C21.5999 7.07413 20.5254 5.99961 19.1999 5.99961H17.297C16.9787 5.99961 16.6735 5.87318 16.4484 5.64814L15.1028 4.30255C14.6528 3.85247 14.0423 3.59961 13.4058 3.59961H10.594C9.95749 3.59961 9.34705 3.85246 8.89696 4.30255L7.55137 5.64814C7.32633 5.87318 7.02111 5.99961 6.70285 5.99961H4.7999ZM11.9999 16.7996C13.9881 16.7996 15.5999 15.1878 15.5999 13.1996C15.5999 11.2114 13.9881 9.59961 11.9999 9.59961C10.0117 9.59961 8.3999 11.2114 8.3999 13.1996C8.3999 15.1878 10.0117 16.7996 11.9999 16.7996Z" fill="#9FACBC"/>
</svg>
