<svg width="12" height="12" viewBox="0 0 12 12" fill="none" xmlns="http://www.w3.org/2000/svg">
<path d="M2.49955 9.19261V5.42761L1.73055 6.02711C1.67122 6.07211 1.61022 6.08945 1.54755 6.07911C1.48489 6.06878 1.43105 6.03411 1.38605 5.97511C1.34105 5.91611 1.32272 5.85528 1.33105 5.79261C1.33872 5.72961 1.37122 5.67561 1.42855 5.63061L5.50255 2.50111C5.57489 2.44711 5.65355 2.40661 5.73855 2.37961C5.82355 2.35261 5.91055 2.33945 5.99955 2.34011C6.08855 2.34078 6.17405 2.35411 6.25605 2.38011C6.33805 2.40611 6.41505 2.44661 6.48705 2.50161L10.5736 5.63161C10.6306 5.67628 10.6627 5.72995 10.6701 5.79261C10.6767 5.85561 10.6577 5.91661 10.6131 5.97561C10.5681 6.03261 10.5142 6.06628 10.4516 6.07661C10.3889 6.08661 10.3289 6.06928 10.2716 6.02461L9.49955 5.42811V9.19261C9.49955 9.41595 9.42089 9.60645 9.26355 9.76411C9.10622 9.92145 8.91572 10.0001 8.69205 10.0001H3.30705C3.08372 10.0001 2.89322 9.92145 2.73555 9.76411C2.57822 9.60678 2.49955 9.41628 2.49955 9.19261ZM3.30755 9.50011H8.69205C8.78172 9.50011 8.85539 9.47128 8.91305 9.41361C8.97072 9.35595 8.99955 9.28228 8.99955 9.19261V5.05011L6.18255 2.90711C6.13122 2.86211 6.07022 2.83961 5.99955 2.83961C5.92889 2.83961 5.86805 2.86195 5.81705 2.90661L2.99955 5.05011V9.19261C2.99955 9.28228 3.02839 9.35595 3.08605 9.41361C3.14372 9.47128 3.21755 9.50011 3.30755 9.50011ZM3.30755 9.50011H2.99955H8.99955H3.30755Z" fill="#909090"/>
</svg>
