<svg width="66" height="68" viewBox="0 0 66 68" fill="none" xmlns="http://www.w3.org/2000/svg">
<g clip-path="url(#clip0_337_4654)">
<path d="M23.2 16.1103C21.26 12.9403 17.13 11.9503 13.96 13.8803" stroke="#999999" stroke-width="2" stroke-linecap="round" stroke-linejoin="round"/>
<path d="M61.1099 12.8703C61.6399 9.20025 59.0899 5.79025 55.4199 5.26025" stroke="#999999" stroke-width="2" stroke-linecap="round" stroke-linejoin="round"/>
<path d="M46.5695 47.31L1.26953 66.57L18.4995 20.46L46.5695 47.31Z" stroke="#999999" stroke-width="2" stroke-linecap="round" stroke-linejoin="round"/>
<path d="M49.2097 57.8C49.2097 57.8 49.2397 57.77 49.2497 57.78L49.2097 57.8ZM47.6397 57.32C47.3697 58.21 47.8697 59.15 48.7497 59.42C49.6397 59.69 50.5797 59.19 50.8497 58.31C51.1197 57.42 50.6197 56.48 49.7397 56.21C48.8497 55.94 47.9097 56.44 47.6397 57.32Z" fill="#999999"/>
<path d="M20.5993 6.95037C20.5993 6.95037 20.6193 6.92037 20.6393 6.93037L20.5993 6.95037ZM19.0293 6.47037C18.7593 7.36037 19.2593 8.30037 20.1393 8.57037C21.0293 8.84037 21.9693 8.34037 22.2393 7.46037C22.5093 6.57037 22.0093 5.63037 21.1293 5.36037C20.2393 5.09037 19.2993 5.59037 19.0293 6.47037Z" fill="#999999"/>
<path d="M59.1296 16.3803C57.3196 16.4403 55.9096 17.9603 55.9696 19.7703C56.0296 21.5803 57.5496 22.9903 59.3596 22.9303C61.1696 22.8703 62.5796 21.3503 62.5196 19.5403C62.4596 17.7303 60.9396 16.3203 59.1296 16.3803Z" stroke="#999999" stroke-width="2" stroke-linecap="round" stroke-linejoin="round"/>
<path d="M55.5695 44.5099C54.0195 44.5599 52.7995 45.8699 52.8595 47.4199C52.9195 48.9699 54.2195 50.1899 55.7695 50.1299C57.3195 50.0799 58.5395 48.7699 58.4795 47.2199C58.4295 45.6699 57.1195 44.4499 55.5695 44.5099Z" stroke="#999999" stroke-width="2" stroke-linecap="round" stroke-linejoin="round"/>
<path d="M32.9497 1.43018C32.9497 1.43018 40.5797 7.26018 34.4497 12.6402C28.3197 18.0202 29.1497 21.7602 30.2197 24.7302" stroke="#999999" stroke-width="2" stroke-linecap="round" stroke-linejoin="round"/>
<path d="M37.9894 30.8602C37.9894 30.8602 35.8093 25.3202 41.6093 21.6502C47.4193 17.9902 50.1994 24.1102 48.4894 26.5002C46.7794 28.8902 42.8894 26.3302 44.1694 17.7702C45.4494 9.21019 51.3594 10.2502 51.3594 10.2502" stroke="#999999" stroke-width="2" stroke-linecap="round" stroke-linejoin="round"/>
<path d="M43.9297 35.7704C43.9297 35.7704 49.9397 31.3604 54.2897 34.9304C58.6397 38.5004 62.6197 38.7104 64.7197 37.1404" stroke="#999999" stroke-width="2" stroke-linecap="round" stroke-linejoin="round"/>
<path d="M14.2393 32.8102C16.3993 32.7102 24.3293 32.4802 32.5193 33.9402" stroke="#999999" stroke-width="2" stroke-linecap="round" stroke-linejoin="round"/>
<path d="M9.35938 44.9204C14.5494 44.7804 29.6794 44.8803 39.2994 50.3703" stroke="#999999" stroke-width="2" stroke-linecap="round" stroke-linejoin="round"/>
<path d="M4.81934 57.0501C8.42934 57.0201 14.4493 57.1801 20.5893 58.3101" stroke="#999999" stroke-width="2" stroke-linecap="round" stroke-linejoin="round"/>
</g>
<defs>
<clipPath id="clip0_337_4654">
<rect width="65.46" height="67.14" fill="white" transform="translate(0.269531 0.430176)"/>
</clipPath>
</defs>
</svg>
