<svg width="48" height="48" viewBox="0 0 48 48" fill="none" xmlns="http://www.w3.org/2000/svg">
<path d="M24 48C37.2548 48 48 37.2548 48 24C48 10.7452 37.2548 0 24 0C10.7452 0 0 10.7452 0 24C0 37.2548 10.7452 48 24 48Z" fill="#F9DB00"/>
<path d="M24.0003 12.4199C17.1003 12.4199 11.5127 16.8749 11.5127 22.3649C11.5127 25.8599 13.7702 28.9274 17.1902 30.6974L16.0127 35.5874L21.6452 32.1299C22.4102 32.2424 23.1903 32.3099 24.0003 32.3099C30.8928 32.3099 36.4877 27.8549 36.4877 22.3649C36.4877 16.8749 30.9003 12.4199 24.0003 12.4199Z" fill="#3E1918"/>
</svg>
