<svg width="48" height="48" viewBox="0 0 48 48" fill="none" xmlns="http://www.w3.org/2000/svg">
<path d="M24 48C37.2548 48 48 37.2548 48 24C48 10.7452 37.2548 0 24 0C10.7452 0 0 10.7452 0 24C0 37.2548 10.7452 48 24 48Z" fill="#3B5998"/>
<path d="M28.2379 14.9326H31.1253V10.4026H26.8053C26.8053 10.4026 24.0903 10.3351 22.3578 12.5851C22.3578 12.5851 21.1805 13.6951 21.158 16.9576V20.3551H16.8828V25.1701H21.158V37.6051H26.0853V25.1701H30.3229L30.9155 20.3551H26.0853V16.9576C26.1003 16.5751 26.2654 14.9026 28.2454 14.9401L28.2379 14.9326Z" fill="white"/>
</svg>
