<svg width="26" height="35" viewBox="0 0 26 35" fill="none" xmlns="http://www.w3.org/2000/svg">
<path d="M11.8367 23.941C11.7823 24.9672 11.7279 25.9394 11.6735 26.8576C11.619 27.7759 11.5374 28.6806 11.4286 29.5718C11.3469 30.3279 11.1701 31.0301 10.898 31.6782C10.6531 32.3534 10.3129 32.934 9.87755 33.4201C9.44218 33.9062 8.89796 34.2843 8.2449 34.5544C7.61905 34.8515 6.88435 35 6.04082 35C5.17007 35 4.40816 34.8515 3.7551 34.5544C3.12925 34.2843 2.58503 33.9062 2.12245 33.4201C1.68707 32.934 1.34694 32.3534 1.10204 31.6782C0.857143 31.0301 0.693878 30.3279 0.612245 29.5718C0.394558 27.8434 0.231292 25.9394 0.122449 23.86C0.0408163 21.7535 0 19.6875 0 17.662C0 15.6366 0.0272109 13.7056 0.0816327 11.8692C0.136054 10.0328 0.272109 8.26389 0.489796 6.5625C0.62585 5.2662 1.11565 4.19946 1.95918 3.36227C2.80272 2.52508 3.83673 1.86343 5.06122 1.37731C6.31293 0.864197 7.67347 0.513117 9.14286 0.324075C10.6395 0.108025 12.1224 0 13.5918 0C15.8231 0 17.7279 0.108025 19.3061 0.324075C20.8844 0.540123 22.1633 0.891203 23.1429 1.37731C24.1497 1.86343 24.8708 2.49807 25.3061 3.28125C25.7687 4.06443 26 5.02315 26 6.15741C26 7.8588 25.6599 9.14159 24.9796 10.0058C24.2993 10.843 23.3061 11.1536 22 10.9375C21.4558 10.8565 20.8571 10.789 20.2041 10.735C19.551 10.6809 18.966 10.6539 18.449 10.6539C16.9796 10.6539 15.7143 10.7485 14.6531 10.9375C13.5918 11.1265 12.6258 11.3966 11.7551 11.7477C11.5374 11.8287 11.3878 11.9502 11.3061 12.1123C11.2245 12.2743 11.1973 12.4363 11.2245 12.5984C11.2789 12.7334 11.3742 12.8414 11.5102 12.9225C11.6735 12.9765 11.8776 12.963 12.1224 12.8819C13.0204 12.5579 14 12.3148 15.0612 12.1528C16.1224 11.9637 17.1565 11.8692 18.1633 11.8692C19.1973 11.8422 20.1633 11.9097 21.0612 12.0718C21.9592 12.2338 22.6803 12.4904 23.2245 12.8414C23.6871 13.1385 24.0952 13.4626 24.449 13.8137C24.8027 14.1377 25.0884 14.5158 25.3061 14.9479C25.551 15.38 25.7279 15.8796 25.8367 16.4468C25.9456 17.0139 26 17.6755 26 18.4317C26 19.9441 25.7687 21.1053 25.3061 21.9155C24.8708 22.7257 24.1769 23.4144 23.2245 23.9815C22.6803 24.3326 21.9456 24.5891 21.0204 24.7512C20.1225 24.9132 19.1429 24.9942 18.0816 24.9942C17.0204 24.9672 15.932 24.8727 14.8163 24.7106C13.7279 24.5216 12.7347 24.265 11.8367 23.941Z" fill="#0DD3CD"/>
</svg>
