<svg width="40" height="40" viewBox="0 0 40 40" fill="none" xmlns="http://www.w3.org/2000/svg">
<path d="M20.0003 6.66699C21.7684 6.66699 23.4641 7.36937 24.7144 8.61961C25.9646 9.86986 26.667 11.5655 26.667 13.3337C26.667 15.1018 25.9646 16.7975 24.7144 18.0477C23.4641 19.2979 21.7684 20.0003 20.0003 20.0003C18.2322 20.0003 16.5365 19.2979 15.2863 18.0477C14.036 16.7975 13.3337 15.1018 13.3337 13.3337C13.3337 11.5655 14.036 9.86986 15.2863 8.61961C16.5365 7.36937 18.2322 6.66699 20.0003 6.66699ZM20.0003 33.3337C20.0003 33.3337 33.3337 33.3337 33.3337 30.0003C33.3337 26.0003 26.8337 21.667 20.0003 21.667C13.167 21.667 6.66699 26.0003 6.66699 30.0003C6.66699 33.3337 20.0003 33.3337 20.0003 33.3337Z" fill="#0DD3CD"/>
</svg>
