<svg width="31" height="40" viewBox="0 0 31 40" fill="none" xmlns="http://www.w3.org/2000/svg">
<mask id="path-1-inside-1_337_4437" fill="white">
<path fill-rule="evenodd" clip-rule="evenodd" d="M18.1036 11.4826C17.2306 11.1125 16.2831 10.9516 15.3368 11.0126C14.3905 11.0737 13.4715 11.355 12.6532 11.8342C11.8349 12.3134 11.1399 12.9772 10.6236 13.7726C10.1074 14.568 9.7841 15.4731 9.67964 16.4156L9.42764 18.6806L9.42164 18.7366C9.3007 19.7898 8.95783 20.8055 8.41564 21.7166L8.38564 21.7656L7.80864 22.7286L7.79464 22.7526C7.54464 23.1696 7.33664 23.5156 7.20164 23.8016C7.06564 24.0906 6.96164 24.4036 7.01364 24.7346C7.07002 25.0924 7.25402 25.4178 7.53164 25.6506C7.78964 25.8666 8.11164 25.9366 8.42864 25.9686C8.74364 26.0006 9.14664 26.0006 9.63364 26.0006H21.8236C22.3106 26.0006 22.7136 26.0006 23.0286 25.9686C23.3456 25.9366 23.6686 25.8666 23.9256 25.6506C24.2033 25.4178 24.3873 25.0924 24.4436 24.7346C24.4966 24.4026 24.3916 24.0906 24.2556 23.8016C24.1206 23.5156 23.9136 23.1696 23.6626 22.7516L23.6486 22.7286L23.0706 21.7656L23.0416 21.7176C22.4995 20.8065 22.1566 19.7908 22.0356 18.7376L22.0296 18.6806L21.9876 18.2986C21.6736 18.4032 21.3453 18.4676 21.0026 18.4916L21.0356 18.7916L21.0426 18.8516C21.1797 20.0451 21.5683 21.1961 22.1826 22.2286L22.2126 22.2806L22.7916 23.2436C23.0596 23.6896 23.2396 23.9926 23.3516 24.2276C23.4626 24.4656 23.4616 24.5506 23.4566 24.5776C23.4379 24.6971 23.3764 24.8059 23.2836 24.8836C23.2616 24.9016 23.1896 24.9476 22.9286 24.9736C22.6686 24.9996 22.3176 25.0006 21.7966 25.0006H9.66064C9.14064 25.0006 8.78764 25.0006 8.52964 24.9736C8.26764 24.9476 8.19564 24.9016 8.17364 24.8836C8.08105 24.8061 8.0196 24.6978 8.00064 24.5786C7.99664 24.5506 7.99464 24.4656 8.10664 24.2286C8.21664 23.9926 8.39864 23.6896 8.66664 23.2436L9.24364 22.2806L9.27464 22.2286C9.88916 21.1958 10.2777 20.0445 10.4146 18.8506L10.4216 18.7906L10.6736 16.5256C10.7576 15.7661 11.0116 15.0354 11.4168 14.3876C11.822 13.7398 12.3679 13.1916 13.014 12.7838C13.6601 12.3759 14.3898 12.1189 15.1489 12.0318C15.908 11.9447 16.6769 12.0297 17.3986 12.2806C17.5986 11.9826 17.8333 11.7159 18.1026 11.4806M19.9166 12.6706C19.6037 12.8095 19.3317 13.0264 19.1266 13.3006C20.0501 14.1282 20.6382 15.2656 20.7796 16.4976C21.1346 16.4886 21.4666 16.3876 21.7516 16.2176C21.5581 14.8624 20.9121 13.6124 19.9186 12.6706"/>
</mask>
<path fill-rule="evenodd" clip-rule="evenodd" d="M18.1036 11.4826C17.2306 11.1125 16.2831 10.9516 15.3368 11.0126C14.3905 11.0737 13.4715 11.355 12.6532 11.8342C11.8349 12.3134 11.1399 12.9772 10.6236 13.7726C10.1074 14.568 9.7841 15.4731 9.67964 16.4156L9.42764 18.6806L9.42164 18.7366C9.3007 19.7898 8.95783 20.8055 8.41564 21.7166L8.38564 21.7656L7.80864 22.7286L7.79464 22.7526C7.54464 23.1696 7.33664 23.5156 7.20164 23.8016C7.06564 24.0906 6.96164 24.4036 7.01364 24.7346C7.07002 25.0924 7.25402 25.4178 7.53164 25.6506C7.78964 25.8666 8.11164 25.9366 8.42864 25.9686C8.74364 26.0006 9.14664 26.0006 9.63364 26.0006H21.8236C22.3106 26.0006 22.7136 26.0006 23.0286 25.9686C23.3456 25.9366 23.6686 25.8666 23.9256 25.6506C24.2033 25.4178 24.3873 25.0924 24.4436 24.7346C24.4966 24.4026 24.3916 24.0906 24.2556 23.8016C24.1206 23.5156 23.9136 23.1696 23.6626 22.7516L23.6486 22.7286L23.0706 21.7656L23.0416 21.7176C22.4995 20.8065 22.1566 19.7908 22.0356 18.7376L22.0296 18.6806L21.9876 18.2986C21.6736 18.4032 21.3453 18.4676 21.0026 18.4916L21.0356 18.7916L21.0426 18.8516C21.1797 20.0451 21.5683 21.1961 22.1826 22.2286L22.2126 22.2806L22.7916 23.2436C23.0596 23.6896 23.2396 23.9926 23.3516 24.2276C23.4626 24.4656 23.4616 24.5506 23.4566 24.5776C23.4379 24.6971 23.3764 24.8059 23.2836 24.8836C23.2616 24.9016 23.1896 24.9476 22.9286 24.9736C22.6686 24.9996 22.3176 25.0006 21.7966 25.0006H9.66064C9.14064 25.0006 8.78764 25.0006 8.52964 24.9736C8.26764 24.9476 8.19564 24.9016 8.17364 24.8836C8.08105 24.8061 8.0196 24.6978 8.00064 24.5786C7.99664 24.5506 7.99464 24.4656 8.10664 24.2286C8.21664 23.9926 8.39864 23.6896 8.66664 23.2436L9.24364 22.2806L9.27464 22.2286C9.88916 21.1958 10.2777 20.0445 10.4146 18.8506L10.4216 18.7906L10.6736 16.5256C10.7576 15.7661 11.0116 15.0354 11.4168 14.3876C11.822 13.7398 12.3679 13.1916 13.014 12.7838C13.6601 12.3759 14.3898 12.1189 15.1489 12.0318C15.908 11.9447 16.6769 12.0297 17.3986 12.2806C17.5986 11.9826 17.8333 11.7159 18.1026 11.4806M19.9166 12.6706C19.6037 12.8095 19.3317 13.0264 19.1266 13.3006C20.0501 14.1282 20.6382 15.2656 20.7796 16.4976C21.1346 16.4886 21.4666 16.3876 21.7516 16.2176C21.5581 14.8624 20.9121 13.6124 19.9186 12.6706" fill="#333333"/>
<path d="M9.67964 16.4156L10.6735 16.5261L10.6736 16.5257L9.67964 16.4156ZM9.42764 18.6806L8.43376 18.57L8.43333 18.574L9.42764 18.6806ZM9.42164 18.7366L10.4151 18.8506L10.4159 18.8431L9.42164 18.7366ZM8.41564 21.7166L9.26856 22.2387L9.27498 22.228L8.41564 21.7166ZM8.38564 21.7656L7.53274 21.2434L7.52783 21.2516L8.38564 21.7656ZM7.80864 22.7286L6.95077 22.2146L6.94486 22.2247L7.80864 22.7286ZM7.79464 22.7526L8.65238 23.2668L8.65842 23.2564L7.79464 22.7526ZM7.20164 23.8016L6.29732 23.3747L6.29682 23.3758L7.20164 23.8016ZM7.01364 24.7346L6.02576 24.8898L6.02583 24.8902L7.01364 24.7346ZM7.53164 25.6506L6.88916 26.4169L6.8897 26.4173L7.53164 25.6506ZM8.42864 25.9686L8.52971 24.9737L8.52908 24.9736L8.42864 25.9686ZM23.0286 25.9686L22.9282 24.9736L22.9276 24.9737L23.0286 25.9686ZM23.9256 25.6506L23.2832 24.8843L23.2822 24.885L23.9256 25.6506ZM24.4436 24.7346L23.4561 24.5769L23.4558 24.5789L24.4436 24.7346ZM24.2556 23.8016L25.1605 23.3758L25.16 23.3747L24.2556 23.8016ZM23.6626 22.7516L24.52 22.2368L24.5168 22.2316L23.6626 22.7516ZM23.6486 22.7286L22.7912 23.2432L22.7944 23.2485L23.6486 22.7286ZM23.0706 21.7656L23.9281 21.2509L23.9266 21.2485L23.0706 21.7656ZM23.0416 21.7176L22.1823 22.229L22.1857 22.2347L23.0416 21.7176ZM22.0356 18.7376L21.0411 18.8422L21.0422 18.8516L22.0356 18.7376ZM22.0296 18.6806L23.0242 18.5759L23.0237 18.5713L22.0296 18.6806ZM21.9876 18.2986L22.9817 18.1893L22.8463 16.9582L21.6714 17.3499L21.9876 18.2986ZM21.0026 18.4916L20.9328 17.494L19.8949 17.5667L20.0086 18.6009L21.0026 18.4916ZM21.0356 18.7916L20.0416 18.9009L20.0424 18.9074L21.0356 18.7916ZM21.0426 18.8516L22.0361 18.7375L22.0359 18.7357L21.0426 18.8516ZM22.1826 22.2286L23.0489 21.7288L23.042 21.7172L22.1826 22.2286ZM22.2126 22.2806L21.3464 22.7803L21.351 22.7881L21.3556 22.7958L22.2126 22.2806ZM22.7916 23.2436L23.6488 22.7285L23.6487 22.7283L22.7916 23.2436ZM23.3516 24.2276L24.258 23.8049L24.2544 23.7973L23.3516 24.2276ZM23.4566 24.5776L22.4734 24.3955L22.4708 24.4091L22.4687 24.4228L23.4566 24.5776ZM23.2836 24.8836L23.9169 25.6576L23.9256 25.6503L23.2836 24.8836ZM22.9286 24.9736L22.8295 23.9785L22.8291 23.9785L22.9286 24.9736ZM8.52964 24.9736L8.63372 23.979L8.62839 23.9784L8.52964 24.9736ZM8.17364 24.8836L7.53201 25.6506L7.5404 25.6575L8.17364 24.8836ZM8.00064 24.5786L7.01069 24.72L7.01181 24.7278L7.01305 24.7356L8.00064 24.5786ZM8.10664 24.2286L9.01078 24.6558L9.01302 24.651L8.10664 24.2286ZM8.66664 23.2436L9.52379 23.7586L9.52445 23.7575L8.66664 23.2436ZM9.24364 22.2806L10.1014 22.7945L10.1026 22.7926L9.24364 22.2806ZM9.27464 22.2286L10.1336 22.7406L10.134 22.7399L9.27464 22.2286ZM10.4146 18.8506L9.42137 18.7347L9.42115 18.7366L10.4146 18.8506ZM10.4216 18.7906L11.4149 18.9064L11.4155 18.9011L10.4216 18.7906ZM10.6736 16.5256L11.6675 16.6361L11.6676 16.6355L10.6736 16.5256ZM17.3986 12.2806L17.0703 13.2251L17.799 13.4784L18.229 12.8378L17.3986 12.2806ZM19.1266 13.3006L18.3259 12.7016L17.7777 13.4344L18.4592 14.0452L19.1266 13.3006ZM20.7796 16.4976L19.7862 16.6117L19.8905 17.5204L20.805 17.4972L20.7796 16.4976ZM21.7516 16.2176L22.2639 17.0764L22.8357 16.7353L22.7416 16.0762L21.7516 16.2176ZM18.4939 10.5618C17.4773 10.131 16.3742 9.94362 15.2724 10.0147L15.4011 12.0106C16.192 11.9595 16.9838 12.094 17.7134 12.4033L18.4939 10.5618ZM15.2724 10.0147C14.1706 10.0858 13.1006 10.4134 12.1479 10.9713L13.1585 12.6971C13.8424 12.2967 14.6103 12.0616 15.4011 12.0106L15.2724 10.0147ZM12.1479 10.9713C11.1951 11.5292 10.3859 12.302 9.78483 13.2281L11.4624 14.317C11.8939 13.6523 12.4747 13.0976 13.1585 12.6971L12.1479 10.9713ZM9.78483 13.2281C9.18373 14.1543 8.80735 15.208 8.68573 16.3054L10.6736 16.5257C10.7609 15.7381 11.031 14.9817 11.4624 14.317L9.78483 13.2281ZM8.68577 16.305L8.43377 18.57L10.4215 18.7911L10.6735 16.5261L8.68577 16.305ZM8.43333 18.574L8.42733 18.63L10.4159 18.8431L10.4219 18.7871L8.43333 18.574ZM8.42817 18.6225C8.32335 19.5353 8.0262 20.4156 7.5563 21.2052L9.27498 22.228C9.88946 21.1954 10.278 20.0443 10.4151 18.8506L8.42817 18.6225ZM7.56278 21.1944L7.53278 21.2434L9.2385 22.2877L9.2685 22.2387L7.56278 21.1944ZM7.52783 21.2516L6.95083 22.2146L8.66645 23.2425L9.24345 22.2795L7.52783 21.2516ZM6.94486 22.2247L6.93086 22.2487L8.65842 23.2564L8.67242 23.2324L6.94486 22.2247ZM6.93697 22.2384C6.69756 22.6377 6.45849 23.0333 6.29732 23.3747L8.10596 24.2284C8.21479 23.9979 8.39172 23.7014 8.65231 23.2668L6.93697 22.2384ZM6.29682 23.3758C6.13547 23.7186 5.92639 24.2572 6.02576 24.8898L8.00152 24.5794C7.99689 24.5499 7.99581 24.4625 8.10646 24.2274L6.29682 23.3758ZM6.02583 24.8902C6.1198 25.4866 6.42646 26.0289 6.88916 26.4169L8.17412 24.8843C8.08158 24.8067 8.02025 24.6982 8.00145 24.5789L6.02583 24.8902ZM6.8897 26.4173C7.38382 26.831 7.95611 26.9259 8.3282 26.9635L8.52908 24.9736C8.26717 24.9472 8.19546 24.9021 8.17358 24.8838L6.8897 26.4173ZM8.32757 26.9634C8.70458 27.0017 9.16633 27.0006 9.63364 27.0006V25.0006C9.12695 25.0006 8.7827 24.9994 8.52971 24.9737L8.32757 26.9634ZM9.63364 27.0006H21.8236V25.0006H9.63364V27.0006ZM21.8236 27.0006C22.2909 27.0006 22.7527 27.0017 23.1297 26.9634L22.9276 24.9737C22.6746 24.9994 22.3303 25.0006 21.8236 25.0006V27.0006ZM23.1291 26.9635C23.4997 26.9261 24.0748 26.8314 24.569 26.4161L23.2822 24.885C23.2739 24.892 23.2522 24.9079 23.1966 24.9256C23.1363 24.9447 23.0523 24.9611 22.9282 24.9736L23.1291 26.9635ZM24.5681 26.4169C25.0308 26.0289 25.3375 25.4866 25.4315 24.8902L23.4558 24.5789C23.437 24.6982 23.3757 24.8067 23.2832 24.8843L24.5681 26.4169ZM25.4311 24.8922C25.5327 24.2557 25.3205 23.7159 25.1605 23.3758L23.3508 24.2274C23.4628 24.4652 23.4605 24.5494 23.4561 24.5769L25.4311 24.8922ZM25.16 23.3747C24.9989 23.0335 24.7618 22.6396 24.52 22.2368L22.8053 23.2664C23.0655 23.6995 23.2424 23.9976 23.3513 24.2284L25.16 23.3747ZM24.5168 22.2316L24.5028 22.2086L22.7944 23.2485L22.8084 23.2715L24.5168 22.2316ZM24.5061 22.2139L23.9281 21.2509L22.2132 22.2802L22.7912 23.2432L24.5061 22.2139ZM23.9266 21.2485L23.8976 21.2005L22.1857 22.2347L22.2147 22.2827L23.9266 21.2485ZM23.901 21.2062C23.4311 20.4166 23.1339 19.5363 23.0291 18.6235L21.0422 18.8516C21.1792 20.0453 21.5678 21.1964 22.1823 22.229L23.901 21.2062ZM23.0301 18.6329L23.0241 18.5759L21.0351 18.7852L21.0411 18.8422L23.0301 18.6329ZM23.0237 18.5713L22.9817 18.1893L20.9936 18.4078L21.0356 18.7898L23.0237 18.5713ZM21.6714 17.3499C21.4401 17.427 21.1948 17.4757 20.9328 17.494L21.0725 19.4891C21.4958 19.4595 21.9072 19.3795 22.3039 19.2472L21.6714 17.3499ZM20.0086 18.6009L20.0416 18.9009L22.0296 18.6822L21.9966 18.3822L20.0086 18.6009ZM20.0424 18.9074L20.0494 18.9674L22.0359 18.7357L22.0289 18.6757L20.0424 18.9074ZM20.0492 18.9656C20.2024 20.2997 20.6366 21.586 21.3233 22.7399L23.042 21.7172C22.4999 20.8062 22.1571 19.7906 22.0361 18.7375L20.0492 18.9656ZM21.3164 22.7283L21.3464 22.7803L23.0788 21.7809L23.0488 21.7289L21.3164 22.7283ZM21.3556 22.7958L21.9346 23.7588L23.6487 22.7283L23.0697 21.7653L21.3556 22.7958ZM21.9345 23.7586C22.2118 24.2201 22.3624 24.4762 22.4489 24.6578L24.2544 23.7973C24.1169 23.509 23.9075 23.159 23.6488 22.7285L21.9345 23.7586ZM22.4454 24.6502C22.4834 24.7317 22.4828 24.7464 22.4751 24.7142C22.4674 24.6824 22.4425 24.5621 22.4734 24.3955L24.4399 24.7596C24.5057 24.4046 24.3823 24.0716 24.2579 23.8049L22.4454 24.6502ZM22.4687 24.4228C22.4874 24.3032 22.5489 24.1945 22.6417 24.1168L23.9256 25.6503C24.204 25.4172 24.3884 25.091 24.4446 24.7323L22.4687 24.4228ZM22.6504 24.1096C22.6966 24.0718 22.7452 24.0399 22.7937 24.0146C22.8384 23.9913 22.8735 23.9787 22.8923 23.9727C22.926 23.962 22.9161 23.9699 22.8295 23.9785L23.0278 25.9686C23.3519 25.9363 23.6645 25.864 23.9169 25.6575L22.6504 24.1096ZM22.8291 23.9785C22.6306 23.9984 22.3386 24.0006 21.7966 24.0006V26.0006C22.2967 26.0006 22.7067 26.0007 23.0281 25.9686L22.8291 23.9785ZM21.7966 24.0006H9.66064V26.0006H21.7966V24.0006ZM9.66064 24.0006C9.11536 24.0006 8.82674 23.9992 8.63372 23.979L8.42556 25.9681C8.74854 26.0019 9.16592 26.0006 9.66064 26.0006V24.0006ZM8.62839 23.9784C8.54112 23.9698 8.53091 23.9618 8.56448 23.9725C8.58323 23.9785 8.61835 23.9911 8.66318 24.0144C8.71185 24.0397 8.76059 24.0717 8.80688 24.1096L7.5404 25.6575C7.79326 25.8644 8.10645 25.9365 8.43089 25.9687L8.62839 23.9784ZM8.81523 24.1165C8.90782 24.194 8.96927 24.3023 8.98823 24.4215L7.01305 24.7356C7.06992 25.0933 7.25427 25.4183 7.53205 25.6506L8.81523 24.1165ZM8.99059 24.4371C8.99911 24.4968 9.0012 24.555 8.99772 24.6093C8.99451 24.6594 8.98723 24.6956 8.98273 24.7145C8.97468 24.7481 8.97335 24.735 9.01077 24.6558L7.20251 23.8013C7.0644 24.0935 6.96466 24.3978 7.01069 24.72L8.99059 24.4371ZM9.01302 24.651C9.09527 24.4746 9.24283 24.2262 9.52379 23.7586L7.80949 22.7285C7.55445 23.1529 7.33801 23.5106 7.20026 23.8061L9.01302 24.651ZM9.52445 23.7575L10.1014 22.7945L8.38583 21.7666L7.80883 22.7296L9.52445 23.7575ZM10.1026 22.7926L10.1336 22.7406L8.41569 21.7165L8.38469 21.7685L10.1026 22.7926ZM10.134 22.7399C10.8208 21.5857 11.2551 20.2989 11.4081 18.9645L9.42115 18.7366C9.30033 19.7901 8.9575 20.806 8.41527 21.7172L10.134 22.7399ZM11.4079 18.9664L11.4149 18.9064L9.42838 18.6747L9.42138 18.7347L11.4079 18.9664ZM11.4155 18.9011L11.6675 16.6361L9.67977 16.415L9.42777 18.68L11.4155 18.9011ZM11.6676 16.6355C11.7351 16.0254 11.9391 15.4383 12.2646 14.9179L10.569 13.8573C10.0842 14.6325 9.7802 15.5069 9.6797 16.4156L11.6676 16.6355ZM12.2646 14.9179C12.5901 14.3975 13.0287 13.9571 13.5478 13.6294L12.4802 11.9382C11.7071 12.4262 11.0538 13.0821 10.569 13.8573L12.2646 14.9179ZM13.5478 13.6294C14.0669 13.3018 14.6531 13.0953 15.2629 13.0253L15.0349 11.0383C14.1265 11.1426 13.2534 11.4501 12.4802 11.9382L13.5478 13.6294ZM15.2629 13.0253C15.8728 12.9553 16.4905 13.0236 17.0703 13.2251L17.727 11.336C16.8633 11.0358 15.9432 10.9341 15.0349 11.0383L15.2629 13.0253ZM18.229 12.8378C18.3805 12.6121 18.5573 12.4113 18.7606 12.2336L17.4447 10.7275C17.1093 11.0205 16.8168 11.353 16.5683 11.7233L18.229 12.8378ZM19.5109 11.7566C19.0415 11.965 18.6335 12.2903 18.3259 12.7016L19.9274 13.8995C20.0299 13.7625 20.1659 13.654 20.3224 13.5845L19.5109 11.7566ZM18.4592 14.0452C19.2005 14.7096 19.6726 15.6227 19.7862 16.6117L21.7731 16.3835C21.6037 14.9085 20.8996 13.5468 19.7941 12.5559L18.4592 14.0452ZM20.805 17.4972C21.3354 17.4838 21.8346 17.3325 22.2639 17.0764L21.2394 15.3587C21.0987 15.4426 20.9339 15.4933 20.7543 15.4979L20.805 17.4972ZM22.7416 16.0762C22.5162 14.4977 21.7638 13.0418 20.6066 11.9448L19.2307 13.3963C20.0605 14.1829 20.6 15.227 20.7617 16.3589L22.7416 16.0762Z" fill="#999999" mask="url(#path-1-inside-1_337_4437)"/>
<path d="M12.8311 25.9065C13.0021 26.6505 13.3791 27.3085 13.9031 27.7765C14.4271 28.2465 15.0691 28.5005 15.7291 28.5005C16.3891 28.5005 17.0311 28.2465 17.5551 27.7775C18.0791 27.3075 18.4551 26.6505 18.6271 25.9065" stroke="#999999" stroke-linecap="round"/>
</svg>
