<svg width="14" height="14" viewBox="0 0 14 14" fill="none" xmlns="http://www.w3.org/2000/svg">
<path d="M5.00882 4.80422L6.52432 1.75222C6.56843 1.66389 6.63628 1.5896 6.72025 1.53768C6.80422 1.48576 6.901 1.45825 6.99973 1.45825C7.09846 1.45825 7.19524 1.48576 7.27921 1.53768C7.36319 1.5896 7.43103 1.66389 7.47515 1.75222L8.99065 4.80422L12.3786 5.29655C12.4764 5.3101 12.5683 5.35085 12.644 5.41416C12.7197 5.47746 12.776 5.56076 12.8066 5.65456C12.8372 5.74835 12.8408 5.84886 12.817 5.94461C12.7932 6.04035 12.743 6.12748 12.6721 6.19605L10.2209 8.57022L10.7996 11.9244C10.8736 12.3549 10.4186 12.6827 10.0296 12.4797L6.99973 10.8954L3.96932 12.4797C3.58082 12.6833 3.12582 12.3549 3.1999 11.9238L3.77857 8.56963L1.3274 6.19547C1.25681 6.12685 1.20688 6.03981 1.18329 5.94423C1.15971 5.84866 1.16341 5.74838 1.19397 5.6548C1.22454 5.56122 1.28074 5.4781 1.3562 5.41487C1.43165 5.35164 1.52333 5.31085 1.62082 5.29714L5.00882 4.80422Z" fill="#F9F100"/>
</svg>
